<svg width="118" height="67" viewBox="0 0 118 67" fill="none" xmlns="http://www.w3.org/2000/svg">
<g clip-path="url(#clip0)">
<path d="M23.47 2H30.21C33.3369 2 36.3357 3.24216 38.5468 5.45321C40.7578 7.66426 42 10.6631 42 13.79V15.47H35.26C32.1331 15.47 29.1343 14.2278 26.9232 12.0168C24.7122 9.80573 23.47 6.8069 23.47 3.68V2Z" fill="url(#paint0_linear)"/>
<path d="M48.74 18L42 18V16.32C42 13.1931 43.2422 10.1943 45.4532 7.98321C46.548 6.88841 47.8477 6.01996 49.2782 5.42746C50.7086 4.83496 52.2417 4.53 53.79 4.53H60.53V6.21C60.53 9.3369 59.2878 12.3357 57.0768 14.5468C54.8657 16.7578 51.8669 18 48.74 18Z" fill="url(#paint1_linear)"/>
<path d="M42 15.47H35.26C32.1331 15.47 29.1343 14.2278 26.9232 12.0168C24.7122 9.80574 23.47 6.8069 23.47 3.68C23.47 1.76 23.47 2 23.54 2C23.8646 4.88083 25.2392 7.54108 27.4012 9.47248C29.5632 11.4039 32.361 12.471 35.26 12.47H41.92C42.0127 13.4671 42.0394 14.4693 42 15.47Z" fill="#7ECE67"/>
<path d="M60.53 6.21C60.53 9.3369 59.2878 12.3357 57.0768 14.5468C55.982 15.6416 54.6823 16.51 53.2518 17.1025C51.8214 17.695 50.2883 18 48.74 18H42C41.968 16.9995 41.9914 15.9979 42.07 15H48.74C51.6379 15.0008 54.4345 13.9333 56.5948 12.0017C58.7552 10.0701 60.1277 7.40998 60.45 4.53C60.56 4.53 60.53 4.28 60.53 6.21Z" fill="#7ECE67"/>
<path d="M61.8 46.82C61.2032 51.0093 59.2931 54.9013 56.3444 57.9362C53.3957 60.9712 49.5603 62.9927 45.39 63.71C26.35 67 14 43.7 27.86 29.86C41.46 16.26 64.5 27.93 61.8 46.82Z" fill="url(#paint2_linear)"/>
<path d="M45.39 63.71C42.3943 64.2246 39.3206 64.0497 36.4026 63.1984C33.4846 62.3472 30.7991 60.842 28.55 58.7973C26.3009 56.7525 24.5474 54.2221 23.4229 51.3981C22.2983 48.5742 21.8322 45.5311 22.06 42.5C22.4498 47.5212 24.7197 52.2106 28.4162 55.6312C32.1127 59.0519 36.9636 60.952 42 60.952C47.0363 60.952 51.8873 59.0519 55.5838 55.6312C59.2803 52.2106 61.5502 47.5212 61.94 42.5C62.3131 47.4604 60.8243 52.3818 57.7641 56.3035C54.704 60.2253 50.2922 62.8659 45.39 63.71Z" fill="#77CACB"/>
<path d="M36.36 46.6C37.48 47.47 38.36 46.36 40.36 46.11C42.36 45.86 47.55 47.22 47.81 49.2C48.07 51.18 45.33 53.55 43.59 55.78C41.85 58.01 42.32 62 42.32 62L40.09 60.27C38.97 59.4 40.33 54.19 40.21 53.19C40.09 52.19 36.86 50.59 37.73 49.48C38.6 48.37 37.48 47.47 36.36 46.6Z" fill="url(#paint3_linear)"/>
<path d="M40.2 37.05C39.4658 37.5173 38.8569 38.1571 38.4264 38.9135C37.9959 39.6699 37.7569 40.5201 37.73 41.39C37.85 42.39 34.73 41.77 33.88 42.88C33.03 43.99 35.25 45.73 36.36 46.6C35.25 45.73 32.14 45.12 30.03 44.38C27.92 43.64 27.43 39.66 27.3 38.67C27.2 37.88 25.15 36.67 23.75 35.82C24.5743 33.9682 25.6697 32.2494 27 30.72C36.8 29.82 33.91 31.08 35.68 32.45C36.79 33.32 35.57 32.59 37.56 32.33C39.55 32.07 42.07 35.81 40.2 37.05Z" fill="url(#paint4_linear)"/>
<path d="M56.38 30.1C59.3202 33.1425 61.2198 37.0391 61.8056 41.2294C62.3914 45.4197 61.6332 49.6878 59.64 53.42C58.23 52.28 57.64 47.67 57.45 45.98C57.2 43.98 51.25 44.74 51 42.75C50.75 40.76 52.49 38.53 52.49 38.53C53.35 37.42 56.49 38.04 58.44 37.79C60.39 37.54 56.2 36.05 53 34.45C49.8 32.85 54.72 33.19 56.38 30.1Z" fill="url(#paint5_linear)"/>
<path d="M48.77 25.18C48.6827 25.7579 48.7661 26.3488 49.01 26.88C50.38 29.73 47.63 30.35 45.9 32.58C44.17 34.81 41.49 31.85 41.07 27.87C40.89 26.23 36.73 25.38 36.73 25.38C36.6978 25.1646 36.6778 24.9476 36.67 24.73C40.6523 23.6208 44.8811 23.7781 48.77 25.18Z" fill="url(#paint6_linear)"/>
<path d="M43 23V19H48.74C52.1305 18.9947 55.3806 17.6455 57.778 15.2481C60.1755 12.8506 61.5247 9.60049 61.53 6.21V4.53C61.53 4.26478 61.4246 4.01043 61.2371 3.82289C61.0496 3.63536 60.7952 3.53 60.53 3.53H53.79C51.4719 3.53181 49.1979 4.1636 47.211 5.35781C45.2242 6.55202 43.5993 8.26376 42.51 10.31C41.7495 7.63261 40.1378 5.27574 37.9185 3.59596C35.6993 1.91619 32.9933 1.00491 30.21 1L23.47 1C23.2048 1 22.9504 1.10536 22.7629 1.29289C22.5754 1.48043 22.47 1.73478 22.47 2V3.68C22.4726 7.07131 23.821 10.323 26.219 12.721C28.617 15.119 31.8687 16.4674 35.26 16.47H41V23C22.82 23.9 14.32 46 27.15 58.85C39.38 71.09 60.37 64 62.79 47C63.2118 44.1008 63.0223 41.1454 62.2337 38.3239C61.4451 35.5023 60.0748 32.8769 58.2109 30.6166C56.3471 28.3562 54.0309 26.5108 51.4112 25.1991C48.7916 23.8874 45.9264 23.1383 43 23ZM59.55 51.3C59.37 51.72 58.62 47.3 58.45 45.85C58.08 43 52.58 43.62 52 42.62C52.0394 41.3535 52.4925 40.1347 53.29 39.15C53.67 38.65 57.12 38.96 58.57 38.78C60.41 38.55 59.74 37.12 60.02 37.95C61.4753 42.3115 61.3084 47.0516 59.55 51.3ZM56.46 31.69C57.7054 33.1561 58.7173 34.8055 59.46 36.58C58.61 35.81 55.81 34.74 53.53 33.58C54.6179 33.1419 55.6123 32.5004 56.46 31.69ZM48.11 27.31C49.11 29.31 46.9 29.66 45.11 31.97C44.75 32.43 44.51 32.36 44.39 32.33C43.59 32.1 42.39 30.39 42.06 27.76C41.93 26.54 40.72 25.71 39.47 25.18C42.2492 24.803 45.0775 25.0489 47.75 25.9C47.776 26.3891 47.8983 26.8683 48.11 27.31ZM53.79 5.53H59.53C59.53 12.92 54.15 17 48.74 17H43.89C45.58 14.7 49.14 10.58 52.95 10.58C53.2152 10.58 53.4696 10.4746 53.6571 10.2871C53.8446 10.0996 53.95 9.84522 53.95 9.58C53.95 7.43 48.26 8.37 43.13 14.7C43.5212 12.1513 44.8105 9.82644 46.7653 8.1449C48.72 6.46336 51.2115 5.53593 53.79 5.53ZM24.47 3H30.21C32.79 3.0063 35.2826 3.93514 37.2376 5.6187C39.1926 7.30226 40.481 9.62951 40.87 12.18C38.75 9.56 35.15 6.05 31.05 6.05C30.7848 6.05 30.5304 6.15536 30.3429 6.34289C30.1554 6.53043 30.05 6.78478 30.05 7.05C30.05 7.31522 30.1554 7.56957 30.3429 7.75711C30.5304 7.94464 30.7848 8.05 31.05 8.05C34.86 8.05 38.42 12.17 40.11 14.47H35.26C29.79 14.47 24.47 10.33 24.47 3ZM36.71 41C35.62 41.21 33.94 41.17 33.09 42.27C32.8805 42.5362 32.7451 42.8532 32.6977 43.1886C32.6503 43.5241 32.6925 43.8661 32.82 44.18C32.14 43.98 31.17 43.71 30.37 43.43C29.92 43.27 28.81 42.43 28.29 38.54C28.16 37.54 26.98 36.66 25.04 35.45C25.7218 34.0945 26.5682 32.8283 27.56 31.68C32.73 31.22 33.69 31.5 33.76 31.51C34.5 32.09 33.63 32.07 35.4 33.51C35.529 33.6423 35.6853 33.7448 35.858 33.8104C36.0308 33.8761 36.2157 33.9032 36.4 33.89C36.5312 33.8741 36.658 33.8323 36.7731 33.7671C36.8881 33.7019 36.989 33.6145 37.07 33.51C37.2809 33.4243 37.5033 33.3704 37.73 33.35C38.3 33.27 39.35 34.12 39.73 35.19C40.03 36.02 39.73 36.19 39.63 36.25C38.8312 36.7861 38.1571 37.4878 37.6533 38.3073C37.1494 39.1269 36.8278 40.0452 36.71 41ZM28.56 57.44C25.9718 54.8588 24.1857 51.5838 23.4174 48.0102C22.6491 44.4365 22.9313 40.7168 24.23 37.3C24.9924 37.7296 25.695 38.2575 26.32 38.87C26.5 40.26 27.06 44.38 29.7 45.32C31.93 46.1 34.54 46.58 35.75 47.39C37.13 48.46 37.1 48.63 36.94 48.84C35.48 50.72 38.66 52.51 39.22 53.36C39.22 53.64 39.1 54.36 39.01 54.99C38.12 60.99 38.76 60.49 41.7 62.77C41.8558 62.8924 42.0445 62.9657 42.2421 62.9807C42.4397 62.9957 42.6372 62.9516 42.8097 62.8541C42.9822 62.7566 43.1219 62.6101 43.2109 62.4331C43.3 62.2561 43.3345 62.0566 43.31 61.86C43.31 61.86 42.89 58.27 44.31 56.4C46.14 54.04 49.04 51.6 48.73 49.07C48.35 46.07 42.13 44.87 40.16 45.07C38.36 45.29 37.42 46.13 36.94 45.76C35.34 44.52 34.66 43.76 34.63 43.45C35.17 42.75 38.96 43.45 38.63 41.21C38.6833 40.5313 38.8913 39.8739 39.2379 39.288C39.5846 38.7021 40.0608 38.2034 40.63 37.83C43.63 35.83 39.95 29.92 36.16 31.58C35.54 31.08 36.16 30.87 34.86 29.88C34.4 29.53 33.56 29.21 29.6 29.46C31.4862 27.8988 33.6607 26.7232 36 26C36.1414 26.1884 36.3484 26.3169 36.58 26.36C38.4 26.73 40.08 27.57 40.12 27.98C40.67 33.16 44.43 36.16 46.73 33.2C48.25 31.2 51.45 30.13 50.12 26.8C51.9623 27.6634 53.6512 28.822 55.12 30.23C53.55 32 51 31.91 50.93 33.56C50.93 34.96 53.1 35.63 55.76 36.84C54.07 36.84 52.51 36.84 51.7 37.92C51.49 38.18 49.7 40.55 50 42.87C50.36 45.69 55.89 45.12 56.46 46.13C56.82 48.97 57.34 51.98 58.46 53.54C57 56.0632 54.979 58.2167 52.5534 59.8337C50.1278 61.4507 47.3626 62.4878 44.4719 62.8649C41.5812 63.2419 38.6426 62.9487 35.8833 62.008C33.1241 61.0673 30.6183 59.5043 28.56 57.44ZM38.73 47.58C39.2824 47.3526 39.8597 47.1915 40.45 47.1C42.45 46.86 46.66 48.33 46.79 49.32C46.92 50.31 45.49 52 44.23 53.44C42.61 55.29 41.47 56.44 41.23 59.92C40.64 59.46 40.28 59.8 40.95 55.28C41.32 52.79 41.44 52.62 39.64 51C39.2542 50.6733 38.8994 50.3118 38.58 49.92C38.8481 49.5954 39.007 49.1944 39.0339 48.7743C39.0608 48.3541 38.9545 47.9362 38.73 47.58Z" fill="black"/>
</g>
<path d="M16.048 34.96C16.512 34.96 16.88 35.104 17.152 35.392C17.424 35.664 17.56 36.032 17.56 36.496V50.584C17.56 51.048 17.416 51.424 17.128 51.712C16.856 52 16.496 52.144 16.048 52.144C15.584 52.144 15.216 52 14.944 51.712C14.672 51.424 14.536 51.048 14.536 50.584V44.656H5.872V50.584C5.872 51.048 5.728 51.424 5.44 51.712C5.168 52 4.8 52.144 4.336 52.144C3.888 52.144 3.52 52 3.232 51.712C2.96 51.424 2.824 51.048 2.824 50.584V36.496C2.824 36.032 2.96 35.664 3.232 35.392C3.504 35.104 3.872 34.96 4.336 34.96C4.8 34.96 5.168 35.104 5.44 35.392C5.728 35.664 5.872 36.032 5.872 36.496V42.16H14.536V36.496C14.536 36.032 14.672 35.664 14.944 35.392C15.216 35.104 15.584 34.96 16.048 34.96ZM81.8324 34.96C82.2804 34.96 82.6404 35.104 82.9124 35.392C83.1844 35.664 83.3204 36.032 83.3204 36.496V50.704C83.3204 51.152 83.1924 51.504 82.9364 51.76C82.6804 52.016 82.3444 52.144 81.9284 52.144C81.5124 52.144 81.1844 52.016 80.9444 51.76C80.7044 51.504 80.5844 51.152 80.5844 50.704V40.816L76.5044 48.544C76.3124 48.896 76.1044 49.16 75.8804 49.336C75.6564 49.496 75.3924 49.576 75.0884 49.576C74.7844 49.576 74.5204 49.496 74.2964 49.336C74.0724 49.176 73.8644 48.912 73.6724 48.544L69.5684 40.936V50.704C69.5684 51.136 69.4404 51.488 69.1844 51.76C68.9444 52.016 68.6164 52.144 68.2004 52.144C67.7844 52.144 67.4564 52.016 67.2164 51.76C66.9764 51.504 66.8564 51.152 66.8564 50.704V36.496C66.8564 36.032 66.9844 35.664 67.2404 35.392C67.5124 35.104 67.8724 34.96 68.3204 34.96C68.9444 34.96 69.4324 35.304 69.7844 35.992L75.1124 46.144L80.4164 35.992C80.7684 35.304 81.2404 34.96 81.8324 34.96ZM88.4761 52C88.0121 52 87.6441 51.872 87.3721 51.616C87.1161 51.36 86.9881 51 86.9881 50.536V36.544C86.9881 36.08 87.1161 35.72 87.3721 35.464C87.6441 35.208 88.0121 35.08 88.4761 35.08H97.1401C97.6041 35.08 97.9641 35.184 98.2201 35.392C98.4761 35.6 98.6041 35.896 98.6041 36.28C98.6041 36.68 98.4761 36.992 98.2201 37.216C97.9641 37.424 97.6041 37.528 97.1401 37.528H90.0121V42.184H96.6601C97.1241 42.184 97.4841 42.288 97.7401 42.496C97.9961 42.704 98.1241 43.008 98.1241 43.408C98.1241 43.792 97.9961 44.088 97.7401 44.296C97.4841 44.504 97.1241 44.608 96.6601 44.608H90.0121V49.552H97.1401C97.6041 49.552 97.9641 49.664 98.2201 49.888C98.4761 50.096 98.6041 50.4 98.6041 50.8C98.6041 51.184 98.4761 51.48 98.2201 51.688C97.9641 51.896 97.6041 52 97.1401 52H88.4761Z" fill="#EDECDA"/>
<defs>
<linearGradient id="paint0_linear" x1="32.74" y1="15.47" x2="32.74" y2="2" gradientUnits="userSpaceOnUse">
<stop stop-color="#8CDD79"/>
<stop offset="1" stop-color="#D4E6B6"/>
</linearGradient>
<linearGradient id="paint1_linear" x1="806.548" y1="233.52" x2="806.548" y2="52.0791" gradientUnits="userSpaceOnUse">
<stop stop-color="#8CDD79"/>
<stop offset="1" stop-color="#D4E6B6"/>
</linearGradient>
<linearGradient id="paint2_linear" x1="41.98" y1="64.02" x2="41.98" y2="23.96" gradientUnits="userSpaceOnUse">
<stop stop-color="#9DD5DF"/>
<stop offset="1" stop-color="#C3E1F5"/>
</linearGradient>
<linearGradient id="paint3_linear" x1="42.08" y1="61.98" x2="42.08" y2="46.08" gradientUnits="userSpaceOnUse">
<stop stop-color="#6AB891"/>
<stop offset="1" stop-color="#85CBA9"/>
</linearGradient>
<linearGradient id="paint4_linear" x1="405.392" y1="768.373" x2="405.392" y2="506.528" gradientUnits="userSpaceOnUse">
<stop stop-color="#6AB891"/>
<stop offset="1" stop-color="#85CBA9"/>
</linearGradient>
<linearGradient id="paint5_linear" x1="563.426" y1="1252.53" x2="563.426" y2="708.712" gradientUnits="userSpaceOnUse">
<stop stop-color="#6AB891"/>
<stop offset="1" stop-color="#85CBA9"/>
</linearGradient>
<linearGradient id="paint6_linear" x1="456.354" y1="326.372" x2="456.354" y2="238.978" gradientUnits="userSpaceOnUse">
<stop stop-color="#6AB891"/>
<stop offset="1" stop-color="#85CBA9"/>
</linearGradient>
<clipPath id="clip0">
<rect width="64" height="64" fill="white" transform="translate(10 1)"/>
</clipPath>
</defs>
</svg>
