<svg id="Capa_1" enable-background="new 0 0 512 512" height="512" viewBox="0 0 512 512" width="512" xmlns="http://www.w3.org/2000/svg"><g><path stroke="white" d="m436 105c0-57.897-47.103-105-105-105-28.544 0-55.426 11.542-75 31.59-19.574-20.048-46.456-31.59-75-31.59-57.897 0-105 47.103-105 105 0 52.805 39.184 96.623 90 103.924v138.076c0 11.517 4.354 22.032 11.495 30-7.141 7.968-11.495 18.483-11.495 30v15c0 49.626 40.374 90 90 90 49.625 0 90-40.374 90-90v-15c0-11.517-4.354-22.032-11.495-30 7.141-7.968 11.495-18.483 11.495-30v-138.076c50.817-7.301 90-51.119 90-103.924zm-120 317c0 27.906-19.151 51.424-45 58.101v-28.101c0-8.284-6.716-15-15-15s-15 6.716-15 15v28.101c-25.849-6.677-45-30.195-45-58.101v-15c0-8.271 6.729-15 15-15h90c8.271 0 15 6.729 15 15zm30-243.509v-43.491c0-8.284-6.716-15-15-15s-15 6.716-15 15v212c0 8.271-6.729 15-15 15h-90c-8.271 0-15-6.729-15-15v-212c0-8.284-6.716-15-15-15s-15 6.716-15 15v43.491c-34.192-6.968-60-37.271-60-73.491 0-41.355 33.645-75 75-75 25.16 0 48.524 12.58 62.5 33.652 5.91 8.912 19.054 8.967 25.001 0 13.974-21.072 37.339-33.652 62.499-33.652 41.355 0 75 33.645 75 75 0 36.219-25.808 66.522-60 73.491z"/></g></svg>